nColumns=19
nRows=66
DataType=double
version=3
OpenSimVersion=4.1
endheader
time	ground_force_1_vx	ground_force_1_vy	ground_force_1_vz	ground_force_1_px	ground_force_1_py	ground_force_1_pz	ground_force_1_mx	ground_force_1_my	ground_force_1_mz	ground_force_2_vx	ground_force_2_vy	ground_force_2_vz	ground_force_2_px	ground_force_2_py	ground_force_2_pz	ground_force_2_mx	ground_force_2_my	ground_force_2_mz
107.295	-52.559	800.712	-126.766	0.687373	0	-0.614803	491.287	-18.2751	-346.401	2.65321e-06	4.78177e-06	-6.65666e-07	0	0	0	0	0	0
107.3	-51.7941	792.498	-128.721	0.686959	0	-0.610836	483.044	-18.8942	-343.598	4.4208e-05	7.94331e-05	-1.10362e-05	0	0	0	0	0	0
107.305	-50.116	784.77	-133.511	0.686533	0	-0.606941	477.263	-22.5793	-340.236	0.000734422	0.00131594	-0.000182502	0	0	0	0	0	0
107.31	-47.4592	773.505	-135.807	0.6861	0	-0.6031	466.424	-26.305	-335.617	0.0121677	0.0217459	-0.00301078	0	0	0	0	0	0
107.315	-45.9572	761.125	-136.462	0.685666	0	-0.599294	456.031	-27.8187	-330.768	0.201085	0.358514	-0.0495594	0.199122	0	-0.44017	0.24959	-0.16228	0.124565
107.32	-44.3795	745.525	-138.415	0.685233	0	-0.595507	444.364	-29.571	-324.174	11.6537	29.8408	3.49713	0.495378	0	-1.09252	33.5586	-16.249	17.2825
107.325	-43.5273	729.92	-138.83	0.684802	0	-0.591731	431.958	-31.0042	-318.133	22.5497	104.88	6.90301	0.493267	0	-1.08468	120.276	-27.9648	54.4393
107.33	-43.1853	710.205	-137.983	0.684373	0	-0.587971	418.015	-31.5419	-310.055	39.0041	282.686	14.3463	0.492023	0	-1.07895	312.881	-42.7254	143.787
107.335	-39.9391	693.541	-136.789	0.683946	0	-0.584241	405.73	-32.3739	-303.04	-2.57118	395.535	-10.1941	0.49124	0	-1.07427	423.809	-1.22514	184.35
107.34	-25.7096	684.692	-150.053	0.68352	0	-0.580567	399.132	-45.4641	-296.474	-33.7756	335.336	-36.5449	0.490734	0	-1.07017	352.183	32.1169	166.606
107.345	-21.2074	649.957	-159.634	0.683101	0	-0.576983	374.056	-51.8322	-283.66	-15.7942	361.822	27.982	0.490389	0	-1.06642	375.746	5.19857	175.738
107.35	-29.1041	615.525	-133.818	0.682697	0	-0.573524	348.748	-39.8966	-270.239	15.0592	410.257	57.5946	0.490117	0	-1.06291	450.779	-24.004	199.944
107.355	-35.1071	587.993	-119.499	0.682319	0	-0.570225	338.463	-32.076	-258.657	5.31054	379.816	36.6979	0.489839	0	-1.05959	404.265	-31.0773	188.809
107.36	-22.71	560.838	-129.673	0.681984	0	-0.567111	321.879	-39.9154	-245.886	-9.23761	365.507	32.0301	0.489484	0	-1.05648	368.342	-30.7409	182.039
107.365	-3.18514	535.472	-146.084	0.681711	0	-0.564199	298.023	-53.7602	-233.066	5.96563	409.822	67.1659	0.489	0	-1.0536	438.381	-41.6991	195.237
107.37	-3.27387	497.283	-140.542	0.681521	0	-0.561489	278.121	-55.6547	-217.438	21.4448	403.906	100.48	0.488363	0	-1.05101	423.784	-57.9138	196.938
107.375	-17.1818	457.895	-97.1223	0.681438	0	-0.558971	256.211	-36.8453	-201.508	22.1972	385.521	61.8388	0.48759	0	-1.04878	404.179	-55.3187	196.796
107.38	-20.9249	419.345	-80.8558	0.681487	0	-0.55662	233.33	-25.3564	-186.436	17.1779	471.52	31.6674	0.486736	0	-1.0469	506.173	-44.923	222.753
107.385	2.77826	400.394	-102.083	0.681699	0	-0.554406	224.188	-37.7352	-174.252	30.1665	484.953	37.7324	0.485873	0	-1.04535	498.234	-55.9951	236.245
107.39	18.6606	361.955	-121.305	0.682106	0	-0.552302	198.5	-53.6167	-156.918	43.5441	510.982	58.9511	0.485072	0	-1.04407	529.919	-76.5217	249.261
107.395	3.347	318.806	-93.6827	0.682749	0	-0.550292	172.909	-43.0933	-139.941	38.9645	554.49	75.9326	0.484383	0	-1.04293	582.773	-75.2048	264.57
107.4	-9.68894	289.243	-60.6032	0.683678	0	-0.548387	160.397	-27.4614	-126.208	30.0759	539.105	78.587	0.483825	0	-1.04183	559.55	-74.5929	263.576
107.405	-1.34588	254.456	-70.4238	0.684946	0	-0.54663	143.81	-28.4495	-111.628	28.5494	547.471	90.7476	0.483396	0	-1.04066	569.237	-81.511	266.845
107.41	13.2776	231.075	-79.4368	0.686613	0	-0.545105	124.292	-30.8707	-100.225	36.5109	583.611	89.766	0.483076	0	-1.03932	612.575	-76.8334	278.874
107.415	11.354	204.874	-67.0579	0.688737	0	-0.543938	108.767	-27.0585	-88.0604	44.9298	590.304	77.0714	0.482837	0	-1.03776	610.478	-82.2698	284.308
107.42	0.150617	173.358	-44.5731	0.691368	0	-0.543282	97.6018	-22.6772	-74.1201	50.178	591.185	71.8817	0.482653	0	-1.03592	602.745	-96.1751	288.211
107.425	0.951506	143.603	-34.824	0.694544	0	-0.543306	76.7359	-21.1964	-61.4847	54.0179	632.082	93.519	0.4825	0	-1.03379	663.83	-105.358	302.273
107.43	11.8045	123.199	-43.7443	0.698296	0	-0.544174	62.5646	-21.4499	-52.7061	55.6342	626.325	109.081	0.482363	0	-1.03136	644.977	-105.659	305.438
107.435	14.4528	110.958	-38.5543	0.702654	0	-0.546037	64.0449	-15.8223	-45.6912	49.8483	645.458	90.1598	0.482231	0	-1.02867	660.13	-95.5041	311.856
107.44	5.7326	85.1207	-15.6141	0.707674	0	-0.549049	45.0732	-5.53513	-35.7426	46.3637	681.314	73.4915	0.482102	0	-1.02575	704.806	-85.0914	323.281
107.445	3.46422	63.9557	-12.8678	0.713487	0	-0.553405	34.2698	-9.87526	-26.1591	56.6709	669.483	86.8864	0.481975	0	-1.02266	676.117	-99.7948	324.435
107.45	6.65032	55.8567	-19.1905	0.720403	0	-0.559457	34.2427	-14.2356	-20.5864	69.0881	681.373	104.59	0.481853	0	-1.01947	697.035	-122.961	329.957
107.455	6.2075	41.02	-12.7822	0.729166	0	-0.567977	23.2077	-4.11598	-15.2409	66.5782	698.35	90.5938	0.481733	0	-1.01622	716.742	-111.505	336.352
107.46	1.94563	16.5031	-1.0721	0.741681	0	-0.580905	10.2099	3.75985	-6.62114	55.1276	707.097	73.9283	0.481615	0	-1.013	709.677	-92.0914	340.237
107.465	0.0323497	0.146203	-0.0141504	0	0	0	0	0	0	50.6337	712.124	70.4985	0.481493	0	-1.00985	717.154	-88.5419	342.734
107.47	0.00207007	0.00929345	-0.000901035	0	0	0	0	0	0	53.0146	727.58	88.7125	0.481362	0	-1.00681	737.395	-93.5153	348.397
107.475	0.000178323	0.000611397	-7.58989e-05	0	0	0	0	0	0	56.3766	719.622	89.0848	0.481213	0	-1.00393	722.488	-96.9104	348.087
107.48	0.000669936	0.000315736	-0.000271781	0	0	0	0	0	0	57.2014	723.772	66.2952	0.48104	0	-1.00123	723.054	-96.139	349.804
107.485	0.00927678	0.00338621	-0.00377783	0	0	0	0	0	0	55.271	746.772	62.2391	0.48084	0	-0.998747	748.272	-87.9079	355.475
107.49	3.96236	2.96878	-1.56249	0.67206	0	0	2.6801	-1.99648	0.0157398	56.0687	728.863	68.2442	0.480612	0	-0.996477	722.618	-84.4704	352.125
107.495	4.07646	2.69494	-1.61954	0.67206	0	0	2.04421	-2.51523	0.149611	54.3569	732.345	74.5155	0.480361	0	-0.994422	727.578	-90.2169	352.325
107.5	0.00724587	0.00825674	-0.00276241	0	0	0	0	0	0	53.3247	740.878	68.1037	0.480095	0	-0.992567	740.337	-88.9149	354.323
107.505	0.00054059	0.000568608	-0.000207685	0	0	0	0	0	0	59.2462	727.422	62.043	0.479822	0	-0.990885	717.514	-89.6911	351.253
107.51	3.92773e-05	3.88107e-05	-1.51736e-05	0	0	0	0	0	0	66.5282	735.137	69.2983	0.479555	0	-0.989338	725.576	-100.448	351.517
107.515	2.79809e-06	2.6292e-06	-1.0855e-06	0	0	0	0	0	0	67.9351	730.318	64.4276	0.479303	0	-0.987882	725.64	-97.9318	349.584
107.52	1.96316e-07	1.76968e-07	-7.64116e-08	0	0	0	0	0	0	62.3925	721.985	65.1841	0.479075	0	-0.986468	708.489	-92.6223	346.114
107.525	1.36069e-08	1.18449e-08	-5.31031e-09	0	0	0	0	0	0	63.515	720.321	62.7916	0.478876	0	-0.985048	711.654	-96.573	345.123
107.53	9.33748e-10	7.88908e-10	-3.65212e-10	0	0	0	0	0	0	67.5831	720.918	71.2664	0.478708	0	-0.983581	710.398	-99.1531	344.089
107.535	6.35445e-11	5.23147e-11	-2.48999e-11	0	0	0	0	0	0	70.6878	712.371	69.3163	0.478569	0	-0.982039	698.282	-98.3582	342.151
107.54	4.29386e-12	3.45557e-12	-1.68521e-12	0	0	0	0	0	0	69.2727	710.601	57.4567	0.478454	0	-0.980408	696.91	-100.112	340.435
107.545	2.8838e-13	2.27448e-13	-1.13336e-13	0	0	0	0	0	0	64.8909	715.226	60.9124	0.478359	0	-0.978688	699.917	-98.2804	340.187
107.55	1.92648e-14	1.49227e-14	-7.58037e-15	0	0	0	0	0	0	63.2525	697.885	62.825	0.478276	0	-0.976895	681.102	-90.9861	335.391
107.555	1.28092e-15	9.76198e-16	-5.04556e-16	0	0	0	0	0	0	62.2681	704.66	65.4442	0.478199	0	-0.975052	687.488	-91.4682	336.168
107.56	8.48121e-17	6.36874e-17	-3.34395e-17	0	0	0	0	0	0	59.3475	704.109	55.4033	0.478126	0	-0.973186	687.437	-85.7791	335.891
107.565	5.59447e-18	4.1446e-18	-2.20767e-18	0	0	0	0	0	0	59.0089	696.906	54.2531	0.478052	0	-0.971327	672.247	-85.07	334.416
107.57	3.67774e-19	2.69092e-19	-1.45242e-19	0	0	0	0	0	0	62.5823	701.495	59.2545	0.477974	0	-0.969498	682.776	-94.7317	335.01
107.575	2.41021e-20	1.74331e-20	-9.52524e-21	0	0	0	0	0	0	62.2603	691.731	62.3502	0.477893	0	-0.967716	669.614	-92.666	330.997
107.58	1.57504e-21	1.1271e-21	-6.2287e-22	0	0	0	0	0	0	58.3943	690.408	55.7715	0.477806	0	-0.965986	664.344	-83.0224	330.11
107.585	1.02657e-22	7.27303e-23	-4.06216e-23	0	0	0	0	0	0	54.7831	688.809	47.636	0.477713	0	-0.964306	666.466	-80.3467	328.072
107.59	6.67467e-24	4.68467e-24	-2.64266e-24	0	0	0	0	0	0	54.4247	687.884	59.0697	0.477614	0	-0.962663	661.799	-84.4712	327.231
107.595	4.32998e-25	3.01227e-25	-1.71524e-25	0	0	0	0	0	0	58.1234	675.486	62.7483	0.477506	0	-0.961037	649.144	-86.9271	324.518
107.6	2.80298e-26	1.93372e-26	-1.11089e-26	0	0	0	0	0	0	60.0528	681.352	59.738	0.47739	0	-0.9594	654.758	-90.2328	325.645
107.605	1.81088e-27	1.2394e-27	-7.18028e-28	0	0	0	0	0	0	56.7918	683.686	54.7082	0.477264	0	-0.957722	654.605	-86.2915	325.458
107.61	1.16772e-28	7.93187e-29	-4.63214e-29	0	0	0	0	0	0	52.6924	673.881	54.8025	0.477129	0	-0.955971	641.763	-78.9977	322.352
107.615	7.51653e-30	5.06886e-30	-2.98291e-30	0	0	0	0	0	0	52.0192	681.284	61.8986	0.476986	0	-0.954113	651.823	-83.6063	323.736
107.62	4.83013e-31	3.23473e-31	-1.91758e-31	0	0	0	0	0	0	51.9649	673.93	58.93	0.476838	0	-0.952116	643.267	-82.9106	321.569
